<?xml version="1.0" encoding="UTF-8"?>
<svg xmlns="http://www.w3.org/2000/svg" xmlns:xlink="http://www.w3.org/1999/xlink" width="25px" height="25px" viewBox="0 0 25 25" version="1.1">
<g id="surface1">
<path style=" stroke:none;fill-rule:evenodd;fill:rgb(0%,0%,0%);fill-opacity:1;" d="M 9.679688 1.347656 C 9.875 1.152344 10.140625 1.042969 10.417969 1.042969 L 18.75 1.042969 C 20.476562 1.042969 21.875 2.441406 21.875 4.167969 L 21.875 8.332031 C 21.875 8.910156 21.410156 9.375 20.832031 9.375 C 20.257812 9.375 19.792969 8.910156 19.792969 8.332031 L 19.792969 4.167969 C 19.792969 3.589844 19.324219 3.125 18.75 3.125 L 11.457031 3.125 L 11.457031 8.332031 C 11.457031 8.910156 10.992188 9.375 10.417969 9.375 L 5.207031 9.375 L 5.207031 20.832031 C 5.207031 21.410156 5.675781 21.875 6.25 21.875 L 10.417969 21.875 C 10.992188 21.875 11.457031 22.339844 11.457031 22.917969 C 11.457031 23.492188 10.992188 23.957031 10.417969 23.957031 L 6.25 23.957031 C 4.523438 23.957031 3.125 22.558594 3.125 20.832031 L 3.125 8.332031 C 3.125 8.058594 3.234375 7.792969 3.429688 7.597656 Z M 6.679688 7.292969 L 9.375 7.292969 L 9.375 4.597656 Z M 21.011719 19.539062 C 21.558594 18.714844 21.875 17.726562 21.875 16.667969 C 21.875 13.789062 19.542969 11.457031 16.667969 11.457031 C 13.789062 11.457031 11.457031 13.789062 11.457031 16.667969 C 11.457031 19.542969 13.789062 21.875 16.667969 21.875 C 17.726562 21.875 18.714844 21.558594 19.539062 21.011719 L 22.179688 23.652344 C 22.585938 24.058594 23.246094 24.058594 23.652344 23.652344 C 24.058594 23.246094 24.058594 22.585938 23.652344 22.179688 Z M 13.542969 16.667969 C 13.542969 14.941406 14.941406 13.542969 16.667969 13.542969 C 18.394531 13.542969 19.792969 14.941406 19.792969 16.667969 C 19.792969 18.394531 18.394531 19.792969 16.667969 19.792969 C 14.941406 19.792969 13.542969 18.394531 13.542969 16.667969 Z M 13.542969 16.667969 "/>
</g>
</svg>
