<?xml version="1.0" encoding="UTF-8"?>
<svg xmlns="http://www.w3.org/2000/svg" xmlns:xlink="http://www.w3.org/1999/xlink" width="25px" height="25px" viewBox="0 0 25 25" version="1.1">
<g id="surface1">
<path style=" stroke:none;fill-rule:nonzero;fill:rgb(92.941177%,10.980392%,13.725491%);fill-opacity:1;" d="M 25 18.75 C 25 20.285156 23.757812 21.527344 22.222656 21.527344 L 2.777344 21.527344 C 1.242188 21.527344 0 20.285156 0 18.75 L 0 6.25 C 0 4.714844 1.242188 3.472656 2.777344 3.472656 L 22.222656 3.472656 C 23.757812 3.472656 25 4.714844 25 6.25 Z M 25 18.75 "/>
<path style=" stroke:none;fill-rule:nonzero;fill:rgb(1.176471%,30.588236%,63.529414%);fill-opacity:1;" d="M 0 11.804688 L 25 11.804688 L 25 16.667969 L 0 16.667969 Z M 0 11.804688 "/>
<path style=" stroke:none;fill-rule:nonzero;fill:rgb(100%,86.666667%,0%);fill-opacity:1;" d="M 25 11.804688 L 25 6.25 C 25 4.714844 23.757812 3.472656 22.222656 3.472656 L 2.777344 3.472656 C 1.242188 3.472656 0 4.714844 0 6.25 L 0 11.804688 Z M 25 11.804688 "/>
<path style=" stroke:none;fill-rule:nonzero;fill:rgb(100%,86.666667%,0%);fill-opacity:1;" d="M 15.972656 13.195312 C 15.972656 13.960938 15.351562 14.582031 14.582031 14.582031 L 10.417969 14.582031 C 9.648438 14.582031 9.027344 13.960938 9.027344 13.195312 L 9.027344 11.109375 C 9.027344 10.34375 9.648438 9.722656 10.417969 9.722656 L 14.582031 9.722656 C 15.351562 9.722656 15.972656 10.34375 15.972656 11.109375 Z M 15.972656 13.195312 "/>
<path style=" stroke:none;fill-rule:nonzero;fill:rgb(1.176471%,30.588236%,63.529414%);fill-opacity:1;" d="M 15.277344 12.5 C 15.277344 13.265625 14.65625 14.582031 13.890625 14.582031 L 11.109375 14.582031 C 10.34375 14.582031 9.722656 13.265625 9.722656 12.5 L 9.722656 11.804688 C 9.722656 11.039062 10.34375 10.417969 11.109375 10.417969 L 13.890625 10.417969 C 14.65625 10.417969 15.277344 11.039062 15.277344 11.804688 Z M 15.277344 12.5 "/>
<path style=" stroke:none;fill-rule:nonzero;fill:rgb(92.941177%,10.980392%,13.725491%);fill-opacity:1;" d="M 14.582031 12.5 C 14.582031 13.265625 13.960938 14.582031 13.195312 14.582031 L 11.804688 14.582031 C 11.039062 14.582031 10.417969 13.265625 10.417969 12.5 L 10.417969 11.804688 C 10.417969 11.039062 11.039062 10.417969 11.804688 10.417969 L 13.195312 10.417969 C 13.960938 10.417969 14.582031 11.039062 14.582031 11.804688 Z M 14.582031 12.5 "/>
<path style=" stroke:none;fill-rule:nonzero;fill:rgb(42.745098%,74.509805%,27.450982%);fill-opacity:1;" d="M 13.871094 9.816406 C 13.777344 10.15625 13.203125 10.417969 12.5 10.417969 C 11.796875 10.417969 11.222656 10.15625 11.128906 9.816406 C 10.292969 9.933594 10.417969 10.160156 10.417969 10.417969 C 10.417969 10.800781 10.964844 11.109375 12.5 11.109375 C 14.035156 11.109375 14.582031 10.800781 14.582031 10.417969 C 14.582031 10.160156 14.707031 9.933594 13.871094 9.816406 Z M 13.871094 9.816406 "/>
<path style=" stroke:none;fill-rule:nonzero;fill:rgb(65.098041%,82.745099%,53.333336%);fill-opacity:1;" d="M 13.195312 13.195312 C 13.195312 13.578125 12.882812 13.890625 12.5 13.890625 C 12.117188 13.890625 11.804688 13.578125 11.804688 13.195312 L 11.804688 11.109375 C 11.804688 10.726562 12.117188 10.417969 12.5 10.417969 C 12.882812 10.417969 13.195312 10.726562 13.195312 11.109375 Z M 13.195312 13.195312 "/>
<path style=" stroke:none;fill-rule:nonzero;fill:rgb(40.000001%,12.941177%,7.450981%);fill-opacity:1;" d="M 14.929688 8.332031 C 15.234375 8.332031 15.527344 8.371094 15.796875 8.429688 C 15.363281 7.679688 13.890625 6.945312 12.5 8.332031 C 11.109375 6.945312 9.636719 7.679688 9.203125 8.429688 C 9.488281 8.367188 9.777344 8.332031 10.070312 8.332031 C 11.410156 8.332031 12.5 8.957031 12.5 9.722656 C 12.5 8.957031 13.585938 8.332031 14.929688 8.332031 Z M 14.929688 8.332031 "/>
<path style=" stroke:none;fill-rule:nonzero;fill:rgb(55.686277%,82.352942%,90.588236%);fill-opacity:1;" d="M 13.890625 12.152344 C 13.890625 10.808594 13.265625 9.722656 12.5 9.722656 C 11.734375 9.722656 11.109375 10.808594 11.109375 12.152344 C 11.109375 13.496094 11.734375 14.582031 12.5 14.582031 C 13.265625 14.582031 13.890625 13.496094 13.890625 12.152344 Z M 13.890625 12.152344 "/>
<path style=" stroke:none;fill-rule:nonzero;fill:rgb(42.745098%,74.509805%,27.450982%);fill-opacity:1;" d="M 12.152344 11.804688 C 11.78125 11.804688 11.433594 11.894531 11.117188 12.046875 C 11.117188 12.082031 11.109375 12.117188 11.109375 12.152344 C 11.109375 13.496094 11.734375 14.582031 12.5 14.582031 C 13.195312 14.582031 13.765625 13.683594 13.867188 12.515625 C 13.414062 12.058594 12.796875 11.804688 12.152344 11.804688 Z M 12.152344 11.804688 "/>
<path style=" stroke:none;fill-rule:nonzero;fill:rgb(100%,80.000001%,30.19608%);fill-opacity:1;" d="M 14.582031 15.277344 C 14.582031 14.894531 13.652344 14.582031 12.5 14.582031 C 11.347656 14.582031 10.417969 14.894531 10.417969 15.277344 C 10.417969 15.660156 11.347656 15.972656 12.5 15.972656 C 13.652344 15.972656 14.582031 15.660156 14.582031 15.277344 Z M 14.582031 15.277344 "/>
<path style=" stroke:none;fill-rule:nonzero;fill:rgb(1.176471%,30.588236%,63.529414%);fill-opacity:1;" d="M 13.890625 15.972656 C 13.890625 16.546875 13.265625 16.667969 12.5 16.667969 C 11.734375 16.667969 11.109375 16.546875 11.109375 15.972656 C 11.109375 15.398438 11.734375 14.582031 12.5 14.582031 C 13.265625 14.582031 13.890625 15.398438 13.890625 15.972656 Z M 13.890625 15.972656 "/>
<path style=" stroke:none;fill-rule:nonzero;fill:rgb(92.941177%,10.980392%,13.725491%);fill-opacity:1;" d="M 11.804688 15.972656 C 11.804688 15.398438 12.117188 14.582031 12.5 14.582031 C 12.882812 14.582031 13.195312 15.398438 13.195312 15.972656 C 13.195312 16.546875 12.882812 16.667969 12.5 16.667969 C 12.117188 16.667969 11.804688 16.546875 11.804688 15.972656 Z M 11.804688 15.972656 "/>
<path style=" stroke:none;fill-rule:nonzero;fill:rgb(80.000001%,83.92157%,86.666667%);fill-opacity:1;" d="M 11.804688 7.640625 C 11.804688 7.253906 12.117188 7.640625 12.5 7.640625 C 12.882812 7.640625 13.195312 7.253906 13.195312 7.640625 C 13.195312 8.023438 12.882812 8.332031 12.5 8.332031 C 12.117188 8.332031 11.804688 8.023438 11.804688 7.640625 Z M 11.804688 7.640625 "/>
<path style=" stroke:none;fill-rule:nonzero;fill:rgb(100%,100%,100%);fill-opacity:1;" d="M 13.195312 12.152344 C 13.195312 11.960938 12.882812 11.804688 12.5 11.804688 C 12.117188 11.804688 11.804688 11.960938 11.804688 12.152344 C 11.804688 12.34375 12.117188 12.5 12.5 12.5 C 12.882812 12.5 13.195312 12.34375 13.195312 12.152344 Z M 13.195312 12.152344 "/>
<path style=" stroke:none;fill-rule:nonzero;fill:rgb(75.686276%,41.176471%,30.980393%);fill-opacity:1;" d="M 9.722656 10.765625 C 9.722656 10.570312 9.410156 10.417969 9.027344 10.417969 C 8.644531 10.417969 8.332031 10.570312 8.332031 10.765625 C 8.332031 10.957031 8.644531 11.109375 9.027344 11.109375 C 9.410156 11.109375 9.722656 10.957031 9.722656 10.765625 Z M 9.722656 10.765625 "/>
<path style=" stroke:none;fill-rule:nonzero;fill:rgb(75.686276%,41.176471%,30.980393%);fill-opacity:1;" d="M 10.417969 9.375 C 10.417969 9.183594 10.105469 9.027344 9.722656 9.027344 C 9.339844 9.027344 9.027344 9.183594 9.027344 9.375 C 9.027344 9.566406 9.339844 9.722656 9.722656 9.722656 C 10.105469 9.722656 10.417969 9.566406 10.417969 9.375 Z M 10.417969 9.375 "/>
<path style=" stroke:none;fill-rule:nonzero;fill:rgb(75.686276%,41.176471%,30.980393%);fill-opacity:1;" d="M 16.667969 10.765625 C 16.667969 10.570312 16.355469 10.417969 15.972656 10.417969 C 15.589844 10.417969 15.277344 10.570312 15.277344 10.765625 C 15.277344 10.957031 15.589844 11.109375 15.972656 11.109375 C 16.355469 11.109375 16.667969 10.957031 16.667969 10.765625 Z M 16.667969 10.765625 "/>
<path style=" stroke:none;fill-rule:nonzero;fill:rgb(75.686276%,41.176471%,30.980393%);fill-opacity:1;" d="M 15.972656 9.375 C 15.972656 9.183594 15.660156 9.027344 15.277344 9.027344 C 14.894531 9.027344 14.582031 9.183594 14.582031 9.375 C 14.582031 9.566406 14.894531 9.722656 15.277344 9.722656 C 15.660156 9.722656 15.972656 9.566406 15.972656 9.375 Z M 15.972656 9.375 "/>
</g>
</svg>
