<?xml version="1.0" encoding="UTF-8"?>
<svg xmlns="http://www.w3.org/2000/svg" xmlns:xlink="http://www.w3.org/1999/xlink" width="25px" height="25px" viewBox="0 0 25 25" version="1.1">
<g id="surface1">
<path style=" stroke:none;fill-rule:evenodd;fill:rgb(0%,0%,0%);fill-opacity:1;" d="M 17.691406 14.25 C 18 14.554688 18 15.054688 17.691406 15.359375 C 17.386719 15.664062 16.894531 15.664062 16.585938 15.359375 L 14.839844 13.609375 L 13.066406 15.382812 C 12.757812 15.6875 12.257812 15.6875 11.953125 15.382812 C 11.644531 15.070312 11.644531 14.570312 11.953125 14.265625 L 13.722656 12.492188 L 11.972656 10.75 C 11.667969 10.445312 11.667969 9.945312 11.972656 9.640625 C 12.28125 9.335938 12.773438 9.335938 13.078125 9.640625 L 14.828125 11.390625 L 16.625 9.59375 C 16.933594 9.289062 17.433594 9.289062 17.742188 9.59375 C 18.050781 9.90625 18.050781 10.398438 17.742188 10.710938 L 15.945312 12.507812 Z M 21.871094 3.90625 L 7.851562 3.90625 C 7.632812 3.890625 7.410156 3.960938 7.242188 4.125 L 0.222656 11.890625 C 0.0585938 12.054688 -0.0117188 12.273438 0 12.484375 C -0.0117188 12.703125 0.0585938 12.921875 0.222656 13.085938 L 7.242188 20.851562 C 7.394531 21 7.597656 21.078125 7.796875 21.078125 L 7.796875 21.09375 L 21.871094 21.09375 C 23.597656 21.09375 25 19.695312 25 17.96875 L 25 7.03125 C 25 5.304688 23.597656 3.90625 21.871094 3.90625 Z M 21.871094 3.90625 "/>
</g>
</svg>
