<?xml version="1.0" encoding="UTF-8"?>
<svg xmlns="http://www.w3.org/2000/svg" xmlns:xlink="http://www.w3.org/1999/xlink" width="25px" height="25px" viewBox="0 0 25 25" version="1.1">
<g id="surface1">
<path style=" stroke:none;fill-rule:nonzero;fill:rgb(0%,0%,0%);fill-opacity:1;" d="M 3.90625 6.25 L 2.34375 6.25 C 1.914062 6.25 1.5625 5.898438 1.5625 5.46875 C 1.5625 5.039062 1.914062 4.6875 2.34375 4.6875 L 8.59375 4.6875 L 8.59375 2.34375 C 8.59375 1.910156 8.945312 1.5625 9.375 1.5625 L 15.625 1.5625 C 16.054688 1.5625 16.40625 1.910156 16.40625 2.34375 L 16.40625 4.6875 L 22.65625 4.6875 C 23.085938 4.6875 23.4375 5.039062 23.4375 5.46875 C 23.4375 5.898438 23.085938 6.25 22.65625 6.25 L 21.09375 6.25 L 21.09375 22.65625 C 21.09375 23.085938 20.742188 23.4375 20.3125 23.4375 L 4.6875 23.4375 C 4.257812 23.4375 3.90625 23.085938 3.90625 22.65625 Z M 14.84375 4.6875 L 14.84375 3.125 L 10.15625 3.125 L 10.15625 4.6875 Z M 5.46875 21.875 L 19.53125 21.875 L 19.53125 6.25 L 5.46875 6.25 Z M 10.15625 18.75 C 9.726562 18.75 9.375 18.398438 9.375 17.96875 L 9.375 10.15625 C 9.375 9.726562 9.726562 9.375 10.15625 9.375 C 10.585938 9.375 10.9375 9.726562 10.9375 10.15625 L 10.9375 17.96875 C 10.9375 18.398438 10.585938 18.75 10.15625 18.75 Z M 14.84375 18.75 C 14.414062 18.75 14.0625 18.398438 14.0625 17.96875 L 14.0625 10.15625 C 14.0625 9.726562 14.414062 9.375 14.84375 9.375 C 15.273438 9.375 15.625 9.726562 15.625 10.15625 L 15.625 17.96875 C 15.625 18.398438 15.273438 18.75 14.84375 18.75 Z M 14.84375 18.75 "/>
</g>
</svg>
