<?xml version="1.0" encoding="UTF-8"?>
<svg xmlns="http://www.w3.org/2000/svg" xmlns:xlink="http://www.w3.org/1999/xlink" width="25px" height="25px" viewBox="0 0 25 25" version="1.1">
<g id="surface1">
<path style="fill:none;stroke-width:2;stroke-linecap:round;stroke-linejoin:round;stroke:rgb(0%,0%,0%);stroke-opacity:1;stroke-miterlimit:4;" d="M 12 18.58125 L 12 12.49875 M 12.79875 18.75375 L 15.81 19.7625 C 17.4525 20.31 18.27 20.5875 18.77625 20.38875 C 19.215 20.22 19.54875 19.84875 19.67625 19.395 C 19.8225 18.87375 19.47 18.0825 18.76125 16.50375 L 14.22 6.3675 C 13.52625 4.8225 13.18125 4.05 12.70125 3.81 C 12.28125 3.60375 11.79 3.60375 11.37 3.81 C 10.88625 4.04625 10.54125 4.81875 9.84375 6.36 L 5.2575 16.5075 C 4.545 18.08625 4.185 18.87375 4.33125 19.39875 C 4.45875 19.8525 4.78875 20.22 5.2275 20.3925 C 5.73375 20.59125 6.555 20.32125 8.20125 19.77375 L 11.28 18.75375 C 11.56125 18.66 11.70375 18.61125 11.84625 18.5925 C 11.97375 18.5775 12.105 18.5775 12.2325 18.5925 C 12.375 18.61125 12.5175 18.66 12.79875 18.75375 Z M 12.79875 18.75375 " transform="matrix(1.041667,0,0,1.041667,0,0)"/>
</g>
</svg>
