<?xml version="1.0" encoding="UTF-8"?>
<svg xmlns="http://www.w3.org/2000/svg" xmlns:xlink="http://www.w3.org/1999/xlink" width="25px" height="25px" viewBox="0 0 25 25" version="1.1">
<g id="surface1">
<path style=" stroke:none;fill-rule:nonzero;fill:rgb(0%,0%,0%);fill-opacity:1;" d="M 20.3125 15.625 L 15.625 15.625 L 15.625 14.0625 L 20.3125 14.0625 Z M 20.3125 15.625 "/>
<path style=" stroke:none;fill-rule:nonzero;fill:rgb(0%,0%,0%);fill-opacity:1;" d="M 23.4375 21.875 L 18.75 21.875 L 18.75 20.3125 L 23.4375 20.3125 Z M 23.4375 21.875 "/>
<path style=" stroke:none;fill-rule:nonzero;fill:rgb(0%,0%,0%);fill-opacity:1;" d="M 21.875 18.75 L 17.1875 18.75 L 17.1875 17.1875 L 21.875 17.1875 Z M 21.875 18.75 "/>
<path style=" stroke:none;fill-rule:nonzero;fill:rgb(0%,0%,0%);fill-opacity:1;" d="M 13.285156 15.625 C 13.273438 14.285156 12.558594 13.046875 11.40625 12.363281 L 17.1875 2.34375 L 15.835938 1.5625 L 9.917969 11.816406 C 8.441406 11.488281 6.898438 11.929688 5.820312 12.992188 C 2.894531 15.8125 3.121094 22.40625 3.132812 22.6875 C 3.148438 23.105469 3.496094 23.4375 3.914062 23.4375 L 15.625 23.4375 C 15.960938 23.4375 16.261719 23.222656 16.367188 22.902344 C 16.472656 22.585938 16.363281 22.234375 16.09375 22.03125 C 13.328125 19.957031 13.285156 15.667969 13.285156 15.625 Z M 9.320312 13.277344 C 10.621094 13.292969 11.675781 14.328125 11.722656 15.625 C 11.722656 15.65625 11.722656 15.789062 11.734375 15.992188 L 7.125 13.941406 C 7.738281 13.4375 8.53125 13.195312 9.320312 13.277344 Z M 12.070312 21.875 C 11.445312 21.238281 11.046875 20.414062 10.9375 19.53125 L 9.375 19.53125 C 9.429688 20.363281 9.691406 21.167969 10.132812 21.875 L 8.394531 21.875 C 8.074219 20.859375 7.878906 19.8125 7.8125 18.75 L 6.25 18.75 C 6.300781 19.808594 6.476562 20.855469 6.769531 21.875 L 4.6875 21.875 C 4.710938 20.441406 4.914062 17.273438 6.097656 15.191406 L 11.980469 17.808594 C 12.265625 19.277344 12.867188 20.667969 13.746094 21.875 Z M 12.070312 21.875 "/>
</g>
</svg>
