<?xml version="1.0" encoding="UTF-8"?>
<svg xmlns="http://www.w3.org/2000/svg" xmlns:xlink="http://www.w3.org/1999/xlink" width="25px" height="25px" viewBox="0 0 25 25" version="1.1">
<g id="surface1">
<path style="fill:none;stroke-width:2;stroke-linecap:round;stroke-linejoin:round;stroke:rgb(0%,0%,0%);stroke-opacity:1;stroke-miterlimit:4;" d="M 7.99875 6 L 21 6 M 7.99875 12 L 21 12 M 7.99875 18 L 21 18 M 3.49875 6 L 3.51 6 M 3.49875 12 L 3.51 12 M 3.49875 18 L 3.51 18 M 4.00125 6 C 4.00125 6.2775 3.77625 6.49875 3.49875 6.49875 C 3.225 6.49875 3 6.2775 3 6 C 3 5.7225 3.225 5.50125 3.49875 5.50125 C 3.77625 5.50125 4.00125 5.7225 4.00125 6 Z M 4.00125 12 C 4.00125 12.2775 3.77625 12.49875 3.49875 12.49875 C 3.225 12.49875 3 12.2775 3 12 C 3 11.7225 3.225 11.50125 3.49875 11.50125 C 3.77625 11.50125 4.00125 11.7225 4.00125 12 Z M 4.00125 18 C 4.00125 18.2775 3.77625 18.49875 3.49875 18.49875 C 3.225 18.49875 3 18.2775 3 18 C 3 17.7225 3.225 17.50125 3.49875 17.50125 C 3.77625 17.50125 4.00125 17.7225 4.00125 18 Z M 4.00125 18 " transform="matrix(1.041667,0,0,1.041667,0,0)"/>
</g>
</svg>
