<?xml version="1.0" encoding="UTF-8"?>
<svg xmlns="http://www.w3.org/2000/svg" xmlns:xlink="http://www.w3.org/1999/xlink" width="25px" height="25px" viewBox="0 0 25 25" version="1.1">
<g id="surface1">
<path style=" stroke:none;fill-rule:nonzero;fill:rgb(0%,0%,0%);fill-opacity:1;" d="M 13.542969 2.082031 C 10.664062 2.082031 8.332031 4.414062 8.332031 7.292969 C 8.332031 7.867188 8.800781 8.332031 9.375 8.332031 C 9.949219 8.332031 10.417969 7.867188 10.417969 7.292969 C 10.417969 5.566406 11.816406 4.167969 13.542969 4.167969 L 17.707031 4.167969 C 19.433594 4.167969 20.832031 5.566406 20.832031 7.292969 L 20.832031 17.707031 C 20.832031 19.433594 19.433594 20.832031 17.707031 20.832031 L 13.542969 20.832031 C 11.816406 20.832031 10.417969 19.433594 10.417969 17.707031 C 10.417969 17.132812 9.949219 16.667969 9.375 16.667969 C 8.800781 16.667969 8.332031 17.132812 8.332031 17.707031 C 8.332031 20.585938 10.664062 22.917969 13.542969 22.917969 L 17.707031 22.917969 C 20.585938 22.917969 22.917969 20.585938 22.917969 17.707031 L 22.917969 7.292969 C 22.917969 4.414062 20.585938 2.082031 17.707031 2.082031 Z M 13.542969 2.082031 "/>
<path style=" stroke:none;fill-rule:nonzero;fill:rgb(0%,0%,0%);fill-opacity:1;" d="M 3.125 11.457031 C 2.550781 11.457031 2.082031 11.925781 2.082031 12.5 C 2.082031 13.074219 2.550781 13.542969 3.125 13.542969 L 11.753906 13.542969 C 11.660156 13.65625 11.570312 13.765625 11.488281 13.871094 C 11.230469 14.195312 11.015625 14.480469 10.863281 14.683594 C 10.785156 14.785156 10.722656 14.863281 10.683594 14.921875 L 10.632812 14.988281 L 10.621094 15.003906 L 10.617188 15.011719 C 10.617188 15.011719 10.617188 15.011719 11.457031 15.625 L 10.617188 15.011719 C 10.277344 15.476562 10.378906 16.128906 10.847656 16.46875 C 11.3125 16.804688 11.960938 16.703125 12.300781 16.238281 L 12.304688 16.234375 L 12.316406 16.21875 L 12.359375 16.160156 C 12.398438 16.109375 12.453125 16.03125 12.527344 15.933594 C 12.671875 15.742188 12.875 15.472656 13.117188 15.167969 C 13.609375 14.546875 14.230469 13.804688 14.800781 13.238281 L 15.535156 12.5 L 14.800781 11.761719 C 14.230469 11.195312 13.609375 10.453125 13.117188 9.832031 C 12.875 9.527344 12.671875 9.257812 12.527344 9.066406 C 12.453125 8.96875 12.398438 8.890625 12.359375 8.839844 L 12.316406 8.78125 L 12.304688 8.765625 L 12.300781 8.761719 C 11.964844 8.296875 11.3125 8.195312 10.847656 8.53125 C 10.378906 8.871094 10.277344 9.523438 10.617188 9.988281 L 11.457031 9.375 C 10.617188 9.988281 10.617188 9.988281 10.617188 9.988281 L 10.621094 9.996094 L 10.632812 10.011719 L 10.683594 10.078125 C 10.722656 10.136719 10.785156 10.214844 10.863281 10.316406 C 11.015625 10.519531 11.230469 10.804688 11.488281 11.128906 C 11.570312 11.234375 11.660156 11.34375 11.753906 11.457031 Z M 3.125 11.457031 "/>
</g>
</svg>
