<?xml version="1.0" encoding="UTF-8"?>
<svg xmlns="http://www.w3.org/2000/svg" xmlns:xlink="http://www.w3.org/1999/xlink" width="25px" height="25px" viewBox="0 0 25 25" version="1.1">
<g id="surface1">
<path style=" stroke:none;fill-rule:nonzero;fill:rgb(0%,0%,0%);fill-opacity:1;" d="M 12.5 2.085938 C 6.75 2.085938 2.085938 6.75 2.085938 12.5 C 2.085938 18.25 6.75 22.914062 12.5 22.914062 C 18.25 22.914062 22.914062 18.25 22.914062 12.5 C 22.914062 6.75 18.25 2.085938 12.5 2.085938 Z M 22.070312 12.085938 L 14.597656 12.085938 C 14.679688 9.222656 15.574219 6.503906 17.207031 4.160156 C 20 5.742188 21.921875 8.6875 22.070312 12.085938 Z M 12.5 2.921875 C 13.90625 2.921875 15.242188 3.226562 16.445312 3.773438 C 14.757812 6.234375 13.835938 9.089844 13.757812 12.082031 L 11.242188 12.082031 C 11.164062 9.085938 10.242188 6.234375 8.554688 3.773438 C 9.757812 3.226562 11.09375 2.921875 12.5 2.921875 Z M 7.792969 4.160156 C 9.425781 6.503906 10.320312 9.222656 10.402344 12.085938 L 2.929688 12.085938 C 3.074219 8.6875 5 5.742188 7.792969 4.160156 Z M 2.929688 12.917969 L 10.410156 12.917969 C 10.328125 15.78125 9.4375 18.503906 7.804688 20.84375 C 5.003906 19.261719 3.078125 16.316406 2.929688 12.917969 Z M 12.5 22.078125 C 11.09375 22.078125 9.757812 21.773438 8.554688 21.226562 C 10.242188 18.765625 11.164062 15.914062 11.242188 12.917969 L 13.757812 12.917969 C 13.835938 15.914062 14.757812 18.765625 16.445312 21.226562 C 15.242188 21.773438 13.90625 22.078125 12.5 22.078125 Z M 17.195312 20.84375 C 15.5625 18.503906 14.667969 15.78125 14.589844 12.917969 L 22.070312 12.917969 C 21.921875 16.320312 19.992188 19.265625 17.195312 20.84375 Z M 17.195312 20.84375 "/>
</g>
</svg>
