<?xml version="1.0" encoding="UTF-8"?>
<svg xmlns="http://www.w3.org/2000/svg" xmlns:xlink="http://www.w3.org/1999/xlink" width="25px" height="25px" viewBox="0 0 25 25" version="1.1">
<g id="surface1">
<path style=" stroke:none;fill-rule:nonzero;fill:rgb(0%,0%,0%);fill-opacity:1;" d="M 24.242188 12.882812 L 20.585938 9.226562 C 20.113281 8.753906 19.347656 8.753906 18.875 9.226562 L 18.144531 9.957031 L 18.144531 1.210938 C 18.144531 0.542969 17.605469 0 16.933594 0 L 1.613281 0 C 0.945312 0 0.402344 0.542969 0.402344 1.210938 L 0.402344 20.566406 C 0.402344 21.234375 0.945312 21.773438 1.613281 21.773438 L 8.46875 21.773438 L 8.46875 23.789062 C 8.46875 24.457031 9.007812 25 9.675781 25 L 13.332031 25 C 13.652344 25 13.960938 24.871094 14.1875 24.644531 L 24.242188 14.59375 C 24.714844 14.121094 24.714844 13.355469 24.242188 12.882812 Z M 2.824219 2.417969 L 15.726562 2.417969 L 15.726562 12.375 L 8.820312 19.277344 C 8.796875 19.304688 8.773438 19.328125 8.753906 19.355469 L 2.824219 19.355469 Z M 12.832031 22.582031 L 10.886719 22.582031 L 10.886719 20.636719 L 19.730469 11.792969 L 21.675781 13.738281 Z M 12.832031 22.582031 "/>
</g>
</svg>
