<?xml version="1.0" encoding="UTF-8"?>
<svg xmlns="http://www.w3.org/2000/svg" xmlns:xlink="http://www.w3.org/1999/xlink" width="25px" height="25px" viewBox="0 0 25 25" version="1.1">
<g id="surface1">
<path style=" stroke:none;fill-rule:evenodd;fill:rgb(0%,0%,0%);fill-opacity:1;" d="M 3.082031 0 L 5.792969 0 C 5.84375 0 5.886719 0.0429688 5.886719 0.09375 L 5.886719 9.089844 L 5.945312 9.027344 L 5.960938 9.011719 C 6.609375 8.304688 7.136719 7.738281 7.8125 7.355469 C 8.496094 6.96875 9.316406 6.777344 10.542969 6.828125 C 10.980469 6.835938 11.5 6.882812 11.925781 6.921875 C 12.121094 6.941406 12.296875 6.957031 12.453125 6.96875 C 14.519531 7.105469 15.488281 8.191406 16.238281 9.039062 C 16.570312 9.410156 16.859375 9.734375 17.167969 9.882812 C 17.316406 9.949219 17.546875 9.851562 17.808594 9.742188 C 17.964844 9.675781 18.132812 9.605469 18.3125 9.558594 C 18.425781 9.515625 18.488281 9.492188 18.535156 9.472656 C 18.597656 9.449219 18.640625 9.433594 18.667969 9.425781 L 20.546875 8.679688 L 20.554688 8.675781 C 20.808594 8.589844 21.101562 8.644531 21.359375 8.796875 C 21.539062 8.90625 21.707031 9.0625 21.828125 9.257812 C 21.945312 9.453125 22.019531 9.683594 22.015625 9.941406 C 22.015625 10.308594 21.851562 10.71875 21.445312 11.125 C 21.425781 11.144531 21.40625 11.15625 21.382812 11.164062 L 19.5 11.910156 L 19.324219 11.972656 C 18.316406 12.328125 17.585938 12.585938 16.304688 12.273438 C 16.292969 12.269531 16.285156 12.265625 16.277344 12.261719 C 15.382812 11.914062 14.917969 11.433594 14.46875 10.960938 L 14.398438 10.890625 L 13.828125 14.535156 C 14.339844 14.855469 14.851562 15.09375 15.332031 15.320312 C 16.796875 16.003906 18 16.566406 18.257812 18.867188 C 18.304688 19.277344 18.285156 19.667969 18.261719 20.089844 L 18.261719 20.097656 C 18.257812 20.15625 18.253906 20.226562 18.246094 20.382812 L 18.070312 24.839844 C 18.0625 24.925781 17.992188 24.992188 17.90625 24.992188 L 15.640625 24.996094 C 15.554688 24.996094 15.484375 24.925781 15.484375 24.839844 C 15.507812 23.304688 15.550781 21.695312 15.632812 20.160156 L 15.644531 19.953125 C 15.65625 19.710938 15.667969 19.492188 15.65625 19.28125 C 15.644531 19.085938 15.605469 18.902344 15.523438 18.722656 L 15.503906 18.675781 C 15.410156 18.476562 15.328125 18.292969 15.203125 18.234375 C 14.953125 18.121094 14.554688 17.976562 14.101562 17.828125 C 13.585938 17.65625 13.007812 17.484375 12.5 17.339844 C 12.125 18.578125 11.617188 20.074219 11.074219 21.496094 C 10.589844 22.765625 10.074219 23.980469 9.597656 24.902344 C 9.566406 24.960938 9.507812 24.992188 9.449219 24.988281 L 7.070312 25 C 6.984375 25 6.910156 24.929688 6.910156 24.84375 C 6.910156 24.824219 6.914062 24.800781 6.921875 24.785156 C 7.398438 23.613281 7.960938 22.09375 8.5 20.550781 C 9.050781 18.96875 9.582031 17.359375 9.972656 16.066406 C 9.738281 15.78125 9.515625 15.460938 9.367188 15.113281 C 9.199219 14.726562 9.117188 14.308594 9.203125 13.855469 L 10.019531 9.449219 L 9.972656 9.449219 C 9.6875 9.4375 9.453125 9.425781 9.183594 9.542969 C 8.8125 9.707031 8.519531 10.035156 8.191406 10.402344 C 8.0625 10.550781 7.925781 10.707031 7.769531 10.863281 L 7.757812 10.875 C 7.640625 10.996094 7.519531 11.117188 7.40625 11.234375 L 5.964844 12.6875 C 5.941406 12.710938 5.917969 12.726562 5.886719 12.730469 L 5.886719 24.90625 C 5.886719 24.957031 5.84375 25 5.792969 25 L 3.082031 25 C 3.03125 25 2.988281 24.957031 2.988281 24.90625 L 2.988281 0.09375 C 2.988281 0.0429688 3.03125 0 3.082031 0 Z M 12.617188 1.304688 C 13.265625 1.082031 13.941406 1.144531 14.511719 1.425781 C 15.082031 1.703125 15.546875 2.203125 15.765625 2.847656 C 15.988281 3.496094 15.925781 4.171875 15.648438 4.742188 C 15.367188 5.3125 14.871094 5.777344 14.222656 5.996094 C 13.578125 6.21875 12.898438 6.15625 12.328125 5.878906 C 11.757812 5.597656 11.296875 5.101562 11.074219 4.453125 C 10.851562 3.804688 10.914062 3.128906 11.195312 2.558594 C 11.472656 1.988281 11.96875 1.527344 12.617188 1.304688 Z M 3.609375 8.078125 L 4.238281 8.078125 L 4.238281 11.078125 L 3.609375 11.078125 Z M 3.609375 8.078125 "/>
</g>
</svg>
