<?xml version="1.0" encoding="UTF-8"?>
<svg xmlns="http://www.w3.org/2000/svg" xmlns:xlink="http://www.w3.org/1999/xlink" width="25px" height="25px" viewBox="0 0 25 25" version="1.1">
<g id="surface1">
<path style=" stroke:none;fill-rule:nonzero;fill:rgb(90.588236%,23.137255%,21.568628%);fill-opacity:1;" d="M 12.257812 15.042969 C 12.257812 15.179688 12.363281 15.289062 12.5 15.289062 C 12.636719 15.289062 12.742188 15.179688 12.742188 15.042969 C 12.742188 14.910156 12.636719 14.800781 12.5 14.800781 C 12.363281 14.800781 12.257812 14.910156 12.257812 15.042969 Z M 12.257812 15.042969 "/>
<path style=" stroke:none;fill-rule:nonzero;fill:rgb(90.588236%,23.137255%,21.568628%);fill-opacity:1;" d="M 12.246094 16.039062 C 12.246094 16.171875 12.355469 16.28125 12.492188 16.28125 C 12.625 16.28125 12.734375 16.171875 12.734375 16.039062 C 12.734375 15.902344 12.625 15.792969 12.492188 15.792969 C 12.355469 15.792969 12.246094 15.902344 12.246094 16.039062 Z M 12.246094 16.039062 "/>
<path style=" stroke:none;fill-rule:nonzero;fill:rgb(90.588236%,23.137255%,21.568628%);fill-opacity:1;" d="M 12.265625 17.035156 C 12.265625 17.167969 12.375 17.277344 12.507812 17.277344 C 12.644531 17.277344 12.753906 17.167969 12.753906 17.035156 C 12.753906 16.898438 12.644531 16.789062 12.507812 16.789062 C 12.375 16.789062 12.265625 16.898438 12.265625 17.035156 Z M 12.265625 17.035156 "/>
<path style=" stroke:none;fill-rule:nonzero;fill:rgb(22.352941%,22.352941%,22.745098%);fill-opacity:1;" d="M 12.5 3.195312 C 13.527344 3.195312 14.496094 3.59375 15.222656 4.320312 C 15.949219 5.046875 16.351562 6.015625 16.351562 7.042969 C 16.351562 8.070312 15.949219 9.039062 15.222656 9.765625 C 14.496094 10.492188 13.527344 10.894531 12.5 10.894531 C 11.472656 10.894531 10.503906 10.492188 9.777344 9.765625 C 9.050781 9.039062 8.648438 8.070312 8.648438 7.042969 C 8.648438 6.015625 9.050781 5.046875 9.777344 4.320312 C 10.503906 3.59375 11.472656 3.195312 12.5 3.195312 M 12.5 2.121094 C 9.78125 2.121094 7.578125 4.324219 7.578125 7.039062 C 7.578125 9.761719 9.78125 11.960938 12.5 11.960938 C 15.21875 11.960938 17.421875 9.757812 17.421875 7.039062 C 17.421875 4.324219 15.21875 2.117188 12.5 2.117188 Z M 12.507812 12.78125 L 2.050781 16.636719 L 2.050781 22.878906 L 22.949219 22.878906 L 22.949219 16.636719 Z M 21.875 21.804688 L 3.125 21.804688 L 3.125 17.398438 L 12.507812 13.921875 L 21.875 17.398438 Z M 21.875 21.804688 "/>
<path style=" stroke:none;fill-rule:nonzero;fill:rgb(90.588236%,23.137255%,21.568628%);fill-opacity:1;" d="M 13.558594 14.289062 L 13.523438 14.277344 L 13.523438 18.179688 C 13.523438 18.46875 13.410156 18.726562 13.222656 18.914062 C 13.035156 19.101562 12.777344 19.214844 12.492188 19.214844 C 11.917969 19.214844 11.457031 18.753906 11.457031 18.179688 L 11.457031 14.289062 L 11.421875 14.300781 L 11.066406 14.429688 L 11.066406 18.183594 C 11.066406 18.96875 11.703125 19.609375 12.492188 19.609375 C 13.277344 19.609375 13.914062 18.96875 13.914062 18.183594 L 13.914062 14.417969 Z M 13.558594 14.289062 "/>
</g>
</svg>
